<?xml version="1.0" encoding="UTF-8" standalone="no"?>
<svg
   version="1.1"
   viewBox="0.0 0.0 1204.0 742.0"
   fill="none"
   stroke="none"
   stroke-linecap="square"
   stroke-miterlimit="10"
   width="1204"
   height="742"
   id="svg192"
   sodipodi:docname="ang_anom-chart-base.svg"
   inkscape:version="1.4 (e7c3feb, 2024-10-09)"
   inkscape:export-filename="ang_anom-chart-base.png"
   inkscape:export-xdpi="96"
   inkscape:export-ydpi="96"
   xmlns:inkscape="http://www.inkscape.org/namespaces/inkscape"
   xmlns:sodipodi="http://sodipodi.sourceforge.net/DTD/sodipodi-0.dtd"
   xmlns="http://www.w3.org/2000/svg"
   xmlns:svg="http://www.w3.org/2000/svg">
  <defs
     id="defs192" />
  <sodipodi:namedview
     id="namedview192"
     pagecolor="#ffffff"
     bordercolor="#666666"
     borderopacity="1.0"
     inkscape:showpageshadow="2"
     inkscape:pageopacity="0.0"
     inkscape:pagecheckerboard="0"
     inkscape:deskcolor="#d1d1d1"
     inkscape:zoom="1.3662791"
     inkscape:cx="574.91915"
     inkscape:cy="370.71489"
     inkscape:window-width="2560"
     inkscape:window-height="1371"
     inkscape:window-x="0"
     inkscape:window-y="0"
     inkscape:window-maximized="1"
     inkscape:current-layer="svg192" />
  <path
     fill="#ffffff"
     d="M0 0L1204.0 0L1204.0 742.0L0 742.0L0 0Z"
     fill-rule="nonzero"
     id="path1" />
  <path
     stroke="#333333"
     stroke-width="1.0"
     stroke-linecap="butt"
     d="M105.5 131.5L105.5 652.5"
     fill-rule="nonzero"
     id="path2" />
  <path
     stroke="#cccccc"
     stroke-width="1.0"
     stroke-linecap="butt"
     d="M340.5 131.5L340.5 652.5"
     fill-rule="nonzero"
     id="path3" />
  <path
     stroke="#cccccc"
     stroke-width="1.0"
     stroke-linecap="butt"
     d="M575.5 131.5L575.5 652.5"
     fill-rule="nonzero"
     id="path4" />
  <path
     stroke="#cccccc"
     stroke-width="1.0"
     stroke-linecap="butt"
     d="M810.5 131.5L810.5 652.5"
     fill-rule="nonzero"
     id="path5" />
  <path
     stroke="#cccccc"
     stroke-width="1.0"
     stroke-linecap="butt"
     d="M1045.5 131.5L1045.5 652.5"
     fill-rule="nonzero"
     id="path6" />
  <path
     stroke="#e6e6e6"
     stroke-width="1.0"
     stroke-linecap="butt"
     d="M184.5 131.5L184.5 652.5"
     fill-rule="nonzero"
     id="path7" />
  <path
     stroke="#e6e6e6"
     stroke-width="1.0"
     stroke-linecap="butt"
     d="M262.5 131.5L262.5 652.5"
     fill-rule="nonzero"
     id="path8" />
  <path
     stroke="#e6e6e6"
     stroke-width="1.0"
     stroke-linecap="butt"
     d="M419.5 131.5L419.5 652.5"
     fill-rule="nonzero"
     id="path9" />
  <path
     stroke="#e6e6e6"
     stroke-width="1.0"
     stroke-linecap="butt"
     d="M497.5 131.5L497.5 652.5"
     fill-rule="nonzero"
     id="path10" />
  <path
     stroke="#e6e6e6"
     stroke-width="1.0"
     stroke-linecap="butt"
     d="M654.5 131.5L654.5 652.5"
     fill-rule="nonzero"
     id="path11" />
  <path
     stroke="#e6e6e6"
     stroke-width="1.0"
     stroke-linecap="butt"
     d="M732.5 131.5L732.5 652.5"
     fill-rule="nonzero"
     id="path12" />
  <path
     stroke="#e6e6e6"
     stroke-width="1.0"
     stroke-linecap="butt"
     d="M889.5 131.5L889.5 652.5"
     fill-rule="nonzero"
     id="path13" />
  <path
     stroke="#e6e6e6"
     stroke-width="1.0"
     stroke-linecap="butt"
     d="M967.5 131.5L967.5 652.5"
     fill-rule="nonzero"
     id="path14" />
  <path
     stroke="#e6e6e6"
     stroke-width="1.0"
     stroke-linecap="butt"
     d="M1124.5 131.5L1124.5 652.5"
     fill-rule="nonzero"
     id="path15" />
  <path
     stroke="#333333"
     stroke-width="1.0"
     stroke-linecap="butt"
     d="M99.5 652.5L1166.5 652.5"
     fill-rule="nonzero"
     id="path16" />
  <path
     stroke="#cccccc"
     stroke-width="1.0"
     stroke-linecap="butt"
     d="M99.5 522.5L1166.5 522.5"
     fill-rule="nonzero"
     id="path17" />
  <path
     stroke="#cccccc"
     stroke-width="1.0"
     stroke-linecap="butt"
     d="M99.5 392.5L1166.5 392.5"
     fill-rule="nonzero"
     id="path18" />
  <path
     stroke="#cccccc"
     stroke-width="1.0"
     stroke-linecap="butt"
     d="M99.5 261.5L1166.5 261.5"
     fill-rule="nonzero"
     id="path19" />
  <path
     stroke="#cccccc"
     stroke-width="1.0"
     stroke-linecap="butt"
     d="M99.5 131.5L1166.5 131.5"
     fill-rule="nonzero"
     id="path20" />
  <path
     stroke="#e6e6e6"
     stroke-width="1.0"
     stroke-linecap="butt"
     d="M99.5 609.5L1166.5 609.5"
     fill-rule="nonzero"
     id="path21" />
  <path
     stroke="#e6e6e6"
     stroke-width="1.0"
     stroke-linecap="butt"
     d="M99.5 566.5L1166.5 566.5"
     fill-rule="nonzero"
     id="path22" />
  <path
     stroke="#e6e6e6"
     stroke-width="1.0"
     stroke-linecap="butt"
     d="M99.5 479.5L1166.5 479.5"
     fill-rule="nonzero"
     id="path23" />
  <path
     stroke="#e6e6e6"
     stroke-width="1.0"
     stroke-linecap="butt"
     d="M99.5 435.5L1166.5 435.5"
     fill-rule="nonzero"
     id="path24" />
  <path
     stroke="#e6e6e6"
     stroke-width="1.0"
     stroke-linecap="butt"
     d="M99.5 348.5L1166.5 348.5"
     fill-rule="nonzero"
     id="path25" />
  <path
     stroke="#e6e6e6"
     stroke-width="1.0"
     stroke-linecap="butt"
     d="M99.5 305.5L1166.5 305.5"
     fill-rule="nonzero"
     id="path26" />
  <path
     stroke="#e6e6e6"
     stroke-width="1.0"
     stroke-linecap="butt"
     d="M99.5 218.5L1166.5 218.5"
     fill-rule="nonzero"
     id="path27" />
  <path
     stroke="#e6e6e6"
     stroke-width="1.0"
     stroke-linecap="butt"
     d="M99.5 175.5L1166.5 175.5"
     fill-rule="nonzero"
     id="path28" />
  <clipPath
     id="id_0">
    <path
       d="M99.1 131.56667L1166.9 131.56667L1166.9 652.9L99.1 652.9L99.1 131.56667Z"
       clip-rule="nonzero"
       id="path29" />
  </clipPath>
  <path
     fill="#000000"
     d="M584.4219 701.9L584.4219 693.3063L587.3906 693.3063Q588.3906 693.3063 588.9219 693.4313Q589.65625 693.60315 590.1719 694.04065Q590.8594 694.6188 591.1875 695.525Q591.53125 696.41565 591.53125 697.5563Q591.53125 698.54065 591.2969 699.29065Q591.0781 700.04065 590.71875 700.54065Q590.3594 701.04065 589.9219 701.3219Q589.5 701.60315 588.90625 701.7594Q588.3125 701.9 587.53125 701.9L584.4219 701.9ZM585.5625 700.8844L587.3906 700.8844Q588.25 700.8844 588.7344 700.72815Q589.21875 700.5719 589.5 700.275Q589.90625 699.8844 590.125 699.1969Q590.3594 698.5094 590.3594 697.54065Q590.3594 696.1969 589.90625 695.47815Q589.46875 694.7438 588.84375 694.4938Q588.375 694.3219 587.375 694.3219L585.5625 694.3219L585.5625 700.8844ZM593.2969 694.525L593.2969 693.3063L594.3594 693.3063L594.3594 694.525L593.2969 694.525ZM593.2969 701.9L593.2969 695.6813L594.3594 695.6813L594.3594 701.9L593.2969 701.9ZM595.875 700.04065L596.90625 699.8844Q597.0 700.5094 597.3906 700.8375Q597.7969 701.16565 598.53125 701.16565Q599.25 701.16565 599.59375 700.8844Q599.9531 700.5875 599.9531 700.1813Q599.9531 699.8219 599.6406 699.6188Q599.4219 699.47815 598.5625 699.2594Q597.40625 698.9625 596.9531 698.7594Q596.5156 698.54065 596.28125 698.16565Q596.0469 697.79065 596.0469 697.3219Q596.0469 696.91565 596.2344 696.5563Q596.4219 696.1969 596.75 695.9625Q597.0 695.79065 597.4219 695.66565Q597.84375 695.54065 598.34375 695.54065Q599.0625 695.54065 599.6094 695.7594Q600.1719 695.9625 600.4375 696.3219Q600.7031 696.6813 600.7969 697.275L599.7656 697.41565Q599.7031 696.9469 599.3594 696.6813Q599.03125 696.4 598.40625 696.4Q597.6875 696.4 597.375 696.65Q597.0625 696.8844 597.0625 697.2125Q597.0625 697.41565 597.1875 697.5719Q597.3281 697.7438 597.59375 697.85315Q597.75 697.91565 598.53125 698.1188Q599.65625 698.4313 600.09375 698.6188Q600.53125 698.8063 600.78125 699.16565Q601.03125 699.525 601.03125 700.0719Q601.03125 700.60315 600.71875 701.0719Q600.4219 701.525 599.84375 701.79065Q599.2656 702.04065 598.53125 702.04065Q597.3125 702.04065 596.6719 701.54065Q596.0469 701.025 595.875 700.04065ZM605.59375 700.9625L605.75 701.8844Q605.2969 701.97815 604.9531 701.97815Q604.375 701.97815 604.0625 701.8063Q603.75 701.6188 603.6094 701.3219Q603.4844 701.025 603.4844 700.0719L603.4844 696.4938L602.71875 696.4938L602.71875 695.6813L603.4844 695.6813L603.4844 694.1344L604.53125 693.5094L604.53125 695.6813L605.59375 695.6813L605.59375 696.4938L604.53125 696.4938L604.53125 700.1344Q604.53125 700.5875 604.5781 700.7125Q604.6406 700.8375 604.7656 700.91565Q604.8906 700.9938 605.125 700.9938Q605.3125 700.9938 605.59375 700.9625ZM610.3594 701.1344Q609.7656 701.6344 609.21875 701.8375Q608.6875 702.04065 608.0625 702.04065Q607.03125 702.04065 606.4844 701.54065Q605.9375 701.04065 605.9375 700.2594Q605.9375 699.8063 606.1406 699.4313Q606.34375 699.04065 606.6875 698.8219Q607.03125 698.5875 607.4531 698.47815Q607.75 698.3844 608.3906 698.3063Q609.65625 698.16565 610.2656 697.9469Q610.2656 697.72815 610.2656 697.6813Q610.2656 697.025 609.96875 696.7594Q609.5625 696.41565 608.7656 696.41565Q608.03125 696.41565 607.6719 696.6813Q607.3125 696.9313 607.1406 697.5875L606.1094 697.4469Q606.25 696.79065 606.5781 696.3844Q606.90625 695.97815 607.5156 695.7594Q608.125 695.54065 608.9219 695.54065Q609.71875 695.54065 610.21875 695.72815Q610.71875 695.91565 610.9531 696.1969Q611.1875 696.47815 611.28125 696.91565Q611.3281 697.1813 611.3281 697.8844L611.3281 699.29065Q611.3281 700.7594 611.3906 701.15Q611.46875 701.54065 611.6719 701.9L610.5625 701.9Q610.40625 701.5719 610.3594 701.1344ZM610.2656 698.775Q609.6875 699.0094 608.5469 699.1813Q607.8906 699.275 607.625 699.4Q607.3594 699.5094 607.2031 699.72815Q607.0625 699.9469 607.0625 700.22815Q607.0625 700.65 607.375 700.9313Q607.7031 701.2125 608.3125 701.2125Q608.9219 701.2125 609.3906 700.9469Q609.875 700.6813 610.09375 700.2125Q610.2656 699.85315 610.2656 699.16565L610.2656 698.775ZM613.2969 701.9L613.2969 695.6813L614.2344 695.6813L614.2344 696.5563Q614.9219 695.54065 616.21875 695.54065Q616.78125 695.54065 617.25 695.7438Q617.7344 695.9469 617.96875 696.275Q618.2031 696.60315 618.2969 697.04065Q618.34375 697.3375 618.34375 698.0719L618.34375 701.9L617.2969 701.9L617.2969 698.1188Q617.2969 697.4625 617.1719 697.15Q617.0469 696.8375 616.7344 696.65Q616.4219 696.4469 616.0 696.4469Q615.3281 696.4469 614.8281 696.8844Q614.34375 697.3063 614.34375 698.4938L614.34375 701.9L613.2969 701.9ZM624.3594 699.6188L625.3906 699.7594Q625.21875 700.8219 624.5156 701.4313Q623.8125 702.04065 622.7969 702.04065Q621.5156 702.04065 620.7344 701.2125Q619.96875 700.3688 619.96875 698.8063Q619.96875 697.8063 620.2969 697.0563Q620.6406 696.29065 621.3125 695.91565Q622.0 695.54065 622.8125 695.54065Q623.8125 695.54065 624.4531 696.0563Q625.1094 696.5563 625.2969 697.5094L624.2656 697.66565Q624.125 697.04065 623.75 696.72815Q623.375 696.4 622.84375 696.4Q622.0469 696.4 621.5469 696.97815Q621.0469 697.54065 621.0469 698.775Q621.0469 700.04065 621.53125 700.60315Q622.0156 701.16565 622.78125 701.16565Q623.40625 701.16565 623.8125 700.79065Q624.2344 700.41565 624.3594 699.6188ZM630.5469 699.9L631.6406 700.025Q631.3906 700.97815 630.6875 701.5094Q629.9844 702.04065 628.90625 702.04065Q627.5469 702.04065 626.7344 701.1969Q625.9375 700.35315 625.9375 698.8375Q625.9375 697.275 626.75 696.41565Q627.5625 695.54065 628.84375 695.54065Q630.09375 695.54065 630.875 696.3844Q631.6719 697.22815 631.6719 698.775Q631.6719 698.8688 631.6719 699.0563L627.03125 699.0563Q627.09375 700.0875 627.6094 700.6344Q628.125 701.16565 628.90625 701.16565Q629.4844 701.16565 629.8906 700.8688Q630.3125 700.5563 630.5469 699.9ZM627.09375 698.1969L630.5625 698.1969Q630.5 697.4 630.1719 697.0094Q629.65625 696.4 628.8594 696.4Q628.125 696.4 627.625 696.8844Q627.1406 697.3688 627.09375 698.1969ZM638.3125 704.4313Q637.4375 703.3219 636.8281 701.85315Q636.2344 700.3688 636.2344 698.79065Q636.2344 697.4 636.6719 696.1188Q637.2031 694.6344 638.3125 693.16565L639.0625 693.16565Q638.3594 694.3844 638.125 694.9Q637.7656 695.7125 637.5625 696.5875Q637.3125 697.6813 637.3125 698.79065Q637.3125 701.6188 639.0625 704.4313L638.3125 704.4313ZM640.2969 701.9L640.2969 695.6813L641.2344 695.6813L641.2344 696.5563Q641.53125 696.0875 642.0156 695.8219Q642.5 695.54065 643.125 695.54065Q643.8125 695.54065 644.25 695.8219Q644.7031 696.10315 644.875 696.6188Q645.625 695.54065 646.7969 695.54065Q647.7344 695.54065 648.21875 696.0563Q648.71875 696.5563 648.71875 697.6344L648.71875 701.9L647.6719 701.9L647.6719 697.97815Q647.6719 697.35315 647.5625 697.0719Q647.46875 696.79065 647.2031 696.6188Q646.9375 696.4469 646.5625 696.4469Q645.90625 696.4469 645.46875 696.8844Q645.0469 697.3219 645.0469 698.29065L645.0469 701.9L643.9844 701.9L643.9844 697.85315Q643.9844 697.15 643.71875 696.8063Q643.46875 696.4469 642.8906 696.4469Q642.4375 696.4469 642.0625 696.6813Q641.6875 696.91565 641.5156 697.3688Q641.34375 697.8219 641.34375 698.66565L641.34375 701.9L640.2969 701.9ZM655.5469 699.9L656.6406 700.025Q656.3906 700.97815 655.6875 701.5094Q654.9844 702.04065 653.90625 702.04065Q652.5469 702.04065 651.7344 701.1969Q650.9375 700.35315 650.9375 698.8375Q650.9375 697.275 651.75 696.41565Q652.5625 695.54065 653.84375 695.54065Q655.09375 695.54065 655.875 696.3844Q656.6719 697.22815 656.6719 698.775Q656.6719 698.8688 656.6719 699.0563L652.03125 699.0563Q652.09375 700.0875 652.6094 700.6344Q653.125 701.16565 653.90625 701.16565Q654.4844 701.16565 654.8906 700.8688Q655.3125 700.5563 655.5469 699.9ZM652.09375 698.1969L655.5625 698.1969Q655.5 697.4 655.1719 697.0094Q654.65625 696.4 653.8594 696.4Q653.125 696.4 652.625 696.8844Q652.1406 697.3688 652.09375 698.1969ZM660.59375 700.9625L660.75 701.8844Q660.2969 701.97815 659.9531 701.97815Q659.375 701.97815 659.0625 701.8063Q658.75 701.6188 658.6094 701.3219Q658.4844 701.025 658.4844 700.0719L658.4844 696.4938L657.71875 696.4938L657.71875 695.6813L658.4844 695.6813L658.4844 694.1344L659.53125 693.5094L659.53125 695.6813L660.59375 695.6813L660.59375 696.4938L659.53125 696.4938L659.53125 700.1344Q659.53125 700.5875 659.5781 700.7125Q659.6406 700.8375 659.7656 700.91565Q659.8906 700.9938 660.125 700.9938Q660.3125 700.9938 660.59375 700.9625ZM665.5469 699.9L666.6406 700.025Q666.3906 700.97815 665.6875 701.5094Q664.9844 702.04065 663.90625 702.04065Q662.5469 702.04065 661.7344 701.1969Q660.9375 700.35315 660.9375 698.8375Q660.9375 697.275 661.75 696.41565Q662.5625 695.54065 663.84375 695.54065Q665.09375 695.54065 665.875 696.3844Q666.6719 697.22815 666.6719 698.775Q666.6719 698.8688 666.6719 699.0563L662.03125 699.0563Q662.09375 700.0875 662.6094 700.6344Q663.125 701.16565 663.90625 701.16565Q664.4844 701.16565 664.8906 700.8688Q665.3125 700.5563 665.5469 699.9ZM662.09375 698.1969L665.5625 698.1969Q665.5 697.4 665.1719 697.0094Q664.65625 696.4 663.8594 696.4Q663.125 696.4 662.625 696.8844Q662.1406 697.3688 662.09375 698.1969ZM668.28125 701.9L668.28125 695.6813L669.2344 695.6813L669.2344 696.6188Q669.59375 695.9625 669.8906 695.7594Q670.2031 695.54065 670.5781 695.54065Q671.1094 695.54065 671.65625 695.8688L671.2969 696.85315Q670.90625 696.6188 670.53125 696.6188Q670.1719 696.6188 669.8906 696.8375Q669.625 697.04065 669.5156 697.41565Q669.3281 697.97815 669.3281 698.6344L669.3281 701.9L668.28125 701.9ZM671.875 700.04065L672.90625 699.8844Q673.0 700.5094 673.3906 700.8375Q673.7969 701.16565 674.53125 701.16565Q675.25 701.16565 675.59375 700.8844Q675.9531 700.5875 675.9531 700.1813Q675.9531 699.8219 675.6406 699.6188Q675.4219 699.47815 674.5625 699.2594Q673.40625 698.9625 672.9531 698.7594Q672.5156 698.54065 672.28125 698.16565Q672.0469 697.79065 672.0469 697.3219Q672.0469 696.91565 672.2344 696.5563Q672.4219 696.1969 672.75 695.9625Q673.0 695.79065 673.4219 695.66565Q673.84375 695.54065 674.34375 695.54065Q675.0625 695.54065 675.6094 695.7594Q676.1719 695.9625 676.4375 696.3219Q676.7031 696.6813 676.7969 697.275L675.7656 697.41565Q675.7031 696.9469 675.3594 696.6813Q675.03125 696.4 674.40625 696.4Q673.6875 696.4 673.375 696.65Q673.0625 696.8844 673.0625 697.2125Q673.0625 697.41565 673.1875 697.5719Q673.3281 697.7438 673.59375 697.85315Q673.75 697.91565 674.53125 698.1188Q675.65625 698.4313 676.09375 698.6188Q676.53125 698.8063 676.78125 699.16565Q677.03125 699.525 677.03125 700.0719Q677.03125 700.60315 676.71875 701.0719Q676.4219 701.525 675.84375 701.79065Q675.2656 702.04065 674.53125 702.04065Q673.3125 702.04065 672.6719 701.54065Q672.0469 701.025 671.875 700.04065ZM679.9844 704.4313L679.2344 704.4313Q680.9844 701.6188 680.9844 698.79065Q680.9844 697.6969 680.7344 696.60315Q680.53125 695.72815 680.1719 694.91565Q679.9375 694.4 679.2344 693.16565L679.9844 693.16565Q681.0781 694.6344 681.6094 696.1188Q682.0625 697.4 682.0625 698.79065Q682.0625 700.3688 681.4531 701.85315Q680.84375 703.3219 679.9844 704.4313Z"
     fill-rule="nonzero"
     id="path176" />
  <path
     fill="#000000"
     d="M48.100025 450.74896L39.506275 447.4521L39.506275 446.23334L48.100025 442.7177L48.100025 443.99896L45.49065 445.0146L45.49065 448.5927L48.100025 449.54584L48.100025 450.74896ZM44.568775 448.2646L44.568775 445.35834L42.193775 446.24896Q41.11565 446.67084 40.412525 446.85834Q41.24065 447.0302 42.05315 447.3271L44.568775 448.2646ZM48.100025 442.93646L41.881275 442.93646L41.881275 441.99896L42.756275 441.99896Q41.74065 441.31146 41.74065 440.0146Q41.74065 439.4521 41.943775 438.98334Q42.1469 438.49896 42.475025 438.2646Q42.80315 438.0302 43.24065 437.93646Q43.537525 437.8896 44.2719 437.8896L48.100025 437.8896L48.100025 438.93646L44.318775 438.93646Q43.662525 438.93646 43.350025 439.06146Q43.037525 439.18646 42.850025 439.49896Q42.6469 439.81146 42.6469 440.23334Q42.6469 440.9052 43.0844 441.4052Q43.506275 441.8896 44.693775 441.8896L48.100025 441.8896L48.100025 442.93646ZM44.99065 436.3271Q43.256275 436.3271 42.42815 435.37396Q41.74065 434.5771 41.74065 433.42084Q41.74065 432.1396 42.5844 431.3271Q43.412525 430.49896 44.8969 430.49896Q46.100025 430.49896 46.787525 430.85834Q47.475025 431.2177 47.86565 431.92084Q48.24065 432.60834 48.24065 433.42084Q48.24065 434.7177 47.412525 435.5302Q46.568775 436.3271 44.99065 436.3271ZM44.99065 435.24896Q46.17815 435.24896 46.7719 434.73334Q47.36565 434.2021 47.36565 433.42084Q47.36565 432.62396 46.7719 432.10834Q46.17815 431.5927 44.9594 431.5927Q43.80315 431.5927 43.2094 432.12396Q42.61565 432.6396 42.61565 433.42084Q42.61565 434.2021 43.2094 434.73334Q43.787525 435.24896 44.99065 435.24896ZM48.100025 428.93646L41.881275 428.93646L41.881275 427.99896L42.756275 427.99896Q42.287525 427.7021 42.0219 427.2177Q41.74065 426.73334 41.74065 426.10834Q41.74065 425.42084 42.0219 424.98334Q42.30315 424.5302 42.818775 424.35834Q41.74065 423.60834 41.74065 422.43646Q41.74065 421.49896 42.256275 421.0146Q42.756275 420.5146 43.8344 420.5146L48.100025 420.5146L48.100025 421.56146L44.17815 421.56146Q43.55315 421.56146 43.2719 421.67084Q42.99065 421.7646 42.818775 422.0302Q42.6469 422.29584 42.6469 422.67084Q42.6469 423.3271 43.0844 423.7646Q43.5219 424.18646 44.49065 424.18646L48.100025 424.18646L48.100025 425.24896L44.05315 425.24896Q43.350025 425.24896 43.006275 425.5146Q42.6469 425.7646 42.6469 426.3427Q42.6469 426.79584 42.881275 427.17084Q43.11565 427.54584 43.568775 427.7177Q44.0219 427.8896 44.86565 427.8896L48.100025 427.8896L48.100025 428.93646ZM47.3344 413.87396Q47.8344 414.4677 48.037525 415.0146Q48.24065 415.54584 48.24065 416.17084Q48.24065 417.2021 47.74065 417.74896Q47.24065 418.29584 46.4594 418.29584Q46.006275 418.29584 45.631275 418.0927Q45.24065 417.8896 45.0219 417.54584Q44.787525 417.2021 44.67815 416.7802Q44.5844 416.48334 44.506275 415.8427Q44.36565 414.5771 44.1469 413.9677Q43.92815 413.9677 43.881275 413.9677Q43.225025 413.9677 42.9594 414.2646Q42.61565 414.67084 42.61565 415.4677Q42.61565 416.2021 42.881275 416.56146Q43.131275 416.92084 43.787525 417.0927L43.6469 418.12396Q42.99065 417.98334 42.5844 417.6552Q42.17815 417.3271 41.9594 416.7177Q41.74065 416.10834 41.74065 415.31146Q41.74065 414.5146 41.92815 414.0146Q42.11565 413.5146 42.3969 413.2802Q42.67815 413.04584 43.11565 412.9521Q43.381275 412.9052 44.0844 412.9052L45.49065 412.9052Q46.9594 412.9052 47.350025 412.8427Q47.74065 412.7646 48.100025 412.56146L48.100025 413.67084Q47.7719 413.8271 47.3344 413.87396ZM44.975025 413.9677Q45.2094 414.54584 45.381275 415.68646Q45.475025 416.3427 45.600025 416.60834Q45.7094 416.87396 45.92815 417.0302Q46.1469 417.17084 46.42815 417.17084Q46.850025 417.17084 47.131275 416.85834Q47.412525 416.5302 47.412525 415.92084Q47.412525 415.31146 47.1469 414.8427Q46.881275 414.35834 46.412525 414.1396Q46.05315 413.9677 45.36565 413.9677L44.975025 413.9677ZM48.100025 410.9677L39.506275 410.9677L39.506275 409.9052L48.100025 409.9052L48.100025 410.9677ZM50.49065 407.98334L49.506275 408.10834Q49.600025 407.7646 49.600025 407.49896Q49.600025 407.1552 49.475025 406.9521Q49.36565 406.73334 49.162525 406.5927Q48.99065 406.49896 48.36565 406.2646Q48.287525 406.24896 48.11565 406.17084L41.881275 408.54584L41.881275 407.4052L45.475025 406.10834Q46.162525 405.85834 46.92815 405.6552Q46.193775 405.4677 45.506275 405.2177L41.881275 403.8896L41.881275 402.8427L48.2094 405.2021Q49.225025 405.5927 49.61565 405.79584Q50.1469 406.0771 50.381275 406.4521Q50.631275 406.81146 50.631275 407.31146Q50.631275 407.60834 50.49065 407.98334ZM50.631275 397.92084Q49.5219 398.79584 48.05315 399.4052Q46.568775 399.99896 44.99065 399.99896Q43.600025 399.99896 42.318775 399.56146Q40.8344 399.0302 39.36565 397.92084L39.36565 397.17084Q40.5844 397.87396 41.100025 398.10834Q41.912525 398.4677 42.787525 398.67084Q43.881275 398.92084 44.99065 398.92084Q47.818775 398.92084 50.631275 397.17084L50.631275 397.92084ZM48.100025 391.9052L47.318775 391.9052Q48.24065 392.49896 48.24065 393.6396Q48.24065 394.3896 47.8344 395.0146Q47.412525 395.6396 46.67815 395.98334Q45.943775 396.3271 44.99065 396.3271Q44.068775 396.3271 43.30315 396.0146Q42.537525 395.7021 42.1469 395.0771Q41.74065 394.4521 41.74065 393.68646Q41.74065 393.12396 41.975025 392.68646Q42.2094 392.24896 42.5844 391.9677L39.506275 391.9677L39.506275 390.92084L48.100025 390.92084L48.100025 391.9052ZM44.99065 395.23334Q46.193775 395.23334 46.787525 394.73334Q47.36565 394.23334 47.36565 393.54584Q47.36565 392.85834 46.80315 392.37396Q46.24065 391.8896 45.0844 391.8896Q43.80315 391.8896 43.2094 392.3896Q42.61565 392.87396 42.61565 393.5927Q42.61565 394.29584 43.193775 394.7646Q43.756275 395.23334 44.99065 395.23334ZM46.100025 384.68646L46.225025 383.5927Q47.17815 383.8427 47.7094 384.54584Q48.24065 385.24896 48.24065 386.3271Q48.24065 387.68646 47.3969 388.49896Q46.55315 389.29584 45.037525 389.29584Q43.475025 389.29584 42.61565 388.48334Q41.74065 387.67084 41.74065 386.3896Q41.74065 385.1396 42.5844 384.35834Q43.42815 383.56146 44.975025 383.56146Q45.068775 383.56146 45.256275 383.56146L45.256275 388.2021Q46.287525 388.1396 46.8344 387.62396Q47.36565 387.10834 47.36565 386.3271Q47.36565 385.74896 47.068775 385.3427Q46.756275 384.92084 46.100025 384.68646ZM44.3969 388.1396L44.3969 384.67084Q43.600025 384.73334 43.2094 385.06146Q42.600025 385.5771 42.600025 386.37396Q42.600025 387.10834 43.0844 387.60834Q43.568775 388.0927 44.3969 388.1396ZM48.61565 382.1396L48.7719 381.10834Q49.24065 381.04584 49.4594 380.74896Q49.756275 380.35834 49.756275 379.68646Q49.756275 378.9521 49.4594 378.56146Q49.162525 378.1552 48.6469 378.0146Q48.318775 377.92084 47.287525 377.93646Q48.100025 378.62396 48.100025 379.6552Q48.100025 380.93646 47.17815 381.6396Q46.24065 382.3427 44.9594 382.3427Q44.068775 382.3427 43.318775 382.0302Q42.55315 381.7021 42.1469 381.0927Q41.74065 380.48334 41.74065 379.6552Q41.74065 378.54584 42.631275 377.8271L41.881275 377.8271L41.881275 376.85834L47.256275 376.85834Q48.7094 376.85834 49.318775 377.1552Q49.92815 377.4521 50.2719 378.0927Q50.631275 378.73334 50.631275 379.67084Q50.631275 380.7802 50.131275 381.4677Q49.631275 382.1552 48.61565 382.1396ZM44.881275 381.2646Q46.100025 381.2646 46.662525 380.7802Q47.225025 380.29584 47.225025 379.56146Q47.225025 378.8271 46.662525 378.3427Q46.100025 377.8427 44.912525 377.8427Q43.7719 377.8427 43.193775 378.35834Q42.61565 378.85834 42.61565 379.5771Q42.61565 380.2802 43.193775 380.7802Q43.756275 381.2646 44.881275 381.2646ZM48.100025 374.9521L41.881275 374.9521L41.881275 373.99896L42.818775 373.99896Q42.162525 373.6396 41.9594 373.3427Q41.74065 373.0302 41.74065 372.6552Q41.74065 372.12396 42.068775 371.5771L43.05315 371.93646Q42.818775 372.3271 42.818775 372.7021Q42.818775 373.06146 43.037525 373.3427Q43.24065 373.60834 43.61565 373.7177Q44.17815 373.9052 44.8344 373.9052L48.100025 373.9052L48.100025 374.9521ZM46.100025 366.68646L46.225025 365.5927Q47.17815 365.8427 47.7094 366.54584Q48.24065 367.24896 48.24065 368.3271Q48.24065 369.68646 47.3969 370.49896Q46.55315 371.29584 45.037525 371.29584Q43.475025 371.29584 42.61565 370.48334Q41.74065 369.67084 41.74065 368.3896Q41.74065 367.1396 42.5844 366.35834Q43.42815 365.56146 44.975025 365.56146Q45.068775 365.56146 45.256275 365.56146L45.256275 370.2021Q46.287525 370.1396 46.8344 369.62396Q47.36565 369.10834 47.36565 368.3271Q47.36565 367.74896 47.068775 367.3427Q46.756275 366.92084 46.100025 366.68646ZM44.3969 370.1396L44.3969 366.67084Q43.600025 366.73334 43.2094 367.06146Q42.600025 367.5771 42.600025 368.37396Q42.600025 369.10834 43.0844 369.60834Q43.568775 370.0927 44.3969 370.1396ZM46.100025 359.68646L46.225025 358.5927Q47.17815 358.8427 47.7094 359.54584Q48.24065 360.24896 48.24065 361.3271Q48.24065 362.68646 47.3969 363.49896Q46.55315 364.29584 45.037525 364.29584Q43.475025 364.29584 42.61565 363.48334Q41.74065 362.67084 41.74065 361.3896Q41.74065 360.1396 42.5844 359.35834Q43.42815 358.56146 44.975025 358.56146Q45.068775 358.56146 45.256275 358.56146L45.256275 363.2021Q46.287525 363.1396 46.8344 362.62396Q47.36565 362.10834 47.36565 361.3271Q47.36565 360.74896 47.068775 360.3427Q46.756275 359.92084 46.100025 359.68646ZM44.3969 363.1396L44.3969 359.67084Q43.600025 359.73334 43.2094 360.06146Q42.600025 360.5771 42.600025 361.37396Q42.600025 362.10834 43.0844 362.60834Q43.568775 363.0927 44.3969 363.1396ZM46.24065 357.35834L46.0844 356.3271Q46.7094 356.23334 47.037525 355.8427Q47.36565 355.43646 47.36565 354.7021Q47.36565 353.98334 47.0844 353.6396Q46.787525 353.2802 46.381275 353.2802Q46.0219 353.2802 45.818775 353.5927Q45.67815 353.81146 45.4594 354.67084Q45.162525 355.8271 44.9594 356.2802Q44.74065 356.7177 44.36565 356.9521Q43.99065 357.18646 43.5219 357.18646Q43.11565 357.18646 42.756275 356.99896Q42.3969 356.81146 42.162525 356.48334Q41.99065 356.23334 41.86565 355.81146Q41.74065 355.3896 41.74065 354.8896Q41.74065 354.17084 41.9594 353.62396Q42.162525 353.06146 42.5219 352.79584Q42.881275 352.5302 43.475025 352.43646L43.61565 353.4677Q43.1469 353.5302 42.881275 353.87396Q42.600025 354.2021 42.600025 354.8271Q42.600025 355.54584 42.850025 355.85834Q43.0844 356.17084 43.412525 356.17084Q43.61565 356.17084 43.7719 356.04584Q43.943775 355.9052 44.05315 355.6396Q44.11565 355.48334 44.318775 354.7021Q44.631275 353.5771 44.818775 353.1396Q45.006275 352.7021 45.36565 352.4521Q45.725025 352.2021 46.2719 352.2021Q46.80315 352.2021 47.2719 352.5146Q47.725025 352.81146 47.99065 353.3896Q48.24065 353.9677 48.24065 354.7021Q48.24065 355.92084 47.74065 356.56146Q47.225025 357.18646 46.24065 357.35834ZM50.631275 349.24896L50.631275 349.99896Q47.818775 348.24896 44.99065 348.24896Q43.8969 348.24896 42.80315 348.49896Q41.92815 348.7021 41.11565 349.06146Q40.600025 349.29584 39.36565 349.99896L39.36565 349.24896Q40.8344 348.1552 42.318775 347.62396Q43.600025 347.17084 44.99065 347.17084Q46.568775 347.17084 48.05315 347.7802Q49.5219 348.3896 50.631275 349.24896Z"
     fill-rule="nonzero"
     id="path177" />
  <path
     fill="#000000"
     d="M69.6 652.66565Q69.6 651.1344 69.9125 650.2125Q70.225 649.275 70.83437 648.775Q71.45937 648.275 72.39687 648.275Q73.08437 648.275 73.6 648.5563Q74.13125 648.8375 74.475 649.3688Q74.81875 649.8844 75.00625 650.6344Q75.19375 651.3844 75.19375 652.66565Q75.19375 654.1813 74.88125 655.10315Q74.58437 656.025 73.95937 656.54065Q73.35 657.04065 72.39687 657.04065Q71.1625 657.04065 70.44375 656.15Q69.6 655.0875 69.6 652.66565ZM70.67812 652.66565Q70.67812 654.775 71.17812 655.47815Q71.67812 656.1813 72.39687 656.1813Q73.13125 656.1813 73.61562 655.47815Q74.11562 654.775 74.11562 652.66565Q74.11562 650.54065 73.61562 649.85315Q73.13125 649.15 72.38125 649.15Q71.6625 649.15 71.225 649.7594Q70.67812 650.54065 70.67812 652.66565ZM77.19375 656.9L77.19375 655.6969L78.39687 655.6969L78.39687 656.9L77.19375 656.9ZM79.6 652.66565Q79.6 651.1344 79.9125 650.2125Q80.225 649.275 80.83437 648.775Q81.45937 648.275 82.39687 648.275Q83.08437 648.275 83.6 648.5563Q84.13125 648.8375 84.475 649.3688Q84.81875 649.8844 85.00625 650.6344Q85.19375 651.3844 85.19375 652.66565Q85.19375 654.1813 84.88125 655.10315Q84.58437 656.025 83.95937 656.54065Q83.35 657.04065 82.39687 657.04065Q81.1625 657.04065 80.44375 656.15Q79.6 655.0875 79.6 652.66565ZM80.67812 652.66565Q80.67812 654.775 81.17812 655.47815Q81.67812 656.1813 82.39687 656.1813Q83.13125 656.1813 83.61562 655.47815Q84.11562 654.775 84.11562 652.66565Q84.11562 650.54065 83.61562 649.85315Q83.13125 649.15 82.38125 649.15Q81.6625 649.15 81.225 649.7594Q80.67812 650.54065 80.67812 652.66565ZM86.6 652.66565Q86.6 651.1344 86.9125 650.2125Q87.225 649.275 87.83437 648.775Q88.45937 648.275 89.39687 648.275Q90.08437 648.275 90.6 648.5563Q91.13125 648.8375 91.475 649.3688Q91.81875 649.8844 92.00625 650.6344Q92.19375 651.3844 92.19375 652.66565Q92.19375 654.1813 91.88125 655.10315Q91.58437 656.025 90.95937 656.54065Q90.35 657.04065 89.39687 657.04065Q88.1625 657.04065 87.44375 656.15Q86.6 655.0875 86.6 652.66565ZM87.67812 652.66565Q87.67812 654.775 88.17812 655.47815Q88.67812 656.1813 89.39687 656.1813Q90.13125 656.1813 90.61562 655.47815Q91.11562 654.775 91.11562 652.66565Q91.11562 650.54065 90.61562 649.85315Q90.13125 649.15 89.38125 649.15Q88.6625 649.15 88.225 649.7594Q87.67812 650.54065 87.67812 652.66565Z"
     fill-rule="nonzero"
     id="path178" />
  <path
     fill="#000000"
     d="M73.56875 526.56665L72.52187 526.56665L72.52187 519.8479Q72.13125 520.2073 71.50625 520.5823Q70.89687 520.94165 70.4125 521.1135L70.4125 520.0979Q71.2875 519.676 71.94375 519.0979Q72.61562 518.50415 72.89687 517.94165L73.56875 517.94165L73.56875 526.56665ZM77.19375 526.56665L77.19375 525.3635L78.39687 525.3635L78.39687 526.56665L77.19375 526.56665ZM79.6 522.3323Q79.6 520.801 79.9125 519.87915Q80.225 518.94165 80.83437 518.44165Q81.45937 517.94165 82.39687 517.94165Q83.08437 517.94165 83.6 518.2229Q84.13125 518.50415 84.475 519.0354Q84.81875 519.551 85.00625 520.301Q85.19375 521.051 85.19375 522.3323Q85.19375 523.8479 84.88125 524.7698Q84.58437 525.69165 83.95937 526.2073Q83.35 526.7073 82.39687 526.7073Q81.1625 526.7073 80.44375 525.81665Q79.6 524.75415 79.6 522.3323ZM80.67812 522.3323Q80.67812 524.44165 81.17812 525.1448Q81.67812 525.8479 82.39687 525.8479Q83.13125 525.8479 83.61562 525.1448Q84.11562 524.44165 84.11562 522.3323Q84.11562 520.2073 83.61562 519.5198Q83.13125 518.81665 82.38125 518.81665Q81.6625 518.81665 81.225 519.426Q80.67812 520.2073 80.67812 522.3323ZM86.6 522.3323Q86.6 520.801 86.9125 519.87915Q87.225 518.94165 87.83437 518.44165Q88.45937 517.94165 89.39687 517.94165Q90.08437 517.94165 90.6 518.2229Q91.13125 518.50415 91.475 519.0354Q91.81875 519.551 92.00625 520.301Q92.19375 521.051 92.19375 522.3323Q92.19375 523.8479 91.88125 524.7698Q91.58437 525.69165 90.95937 526.2073Q90.35 526.7073 89.39687 526.7073Q88.1625 526.7073 87.44375 525.81665Q86.6 524.75415 86.6 522.3323ZM87.67812 522.3323Q87.67812 524.44165 88.17812 525.1448Q88.67812 525.8479 89.39687 525.8479Q90.13125 525.8479 90.61562 525.1448Q91.11562 524.44165 91.11562 522.3323Q91.11562 520.2073 90.61562 519.5198Q90.13125 518.81665 89.38125 518.81665Q88.6625 518.81665 88.225 519.426Q87.67812 520.2073 87.67812 522.3323Z"
     fill-rule="nonzero"
     id="path179" />
  <path
     fill="#000000"
     d="M75.14687 395.2177L75.14687 396.23334L69.45937 396.23334Q69.45937 395.85834 69.58437 395.49896Q69.80312 394.92084 70.27187 394.35834Q70.75625 393.79584 71.6625 393.06146Q73.06875 391.9052 73.55312 391.23334Q74.05312 390.56146 74.05312 389.9677Q74.05312 389.3427 73.6 388.92084Q73.14687 388.48334 72.42812 388.48334Q71.6625 388.48334 71.20937 388.93646Q70.75625 389.3896 70.74062 390.2021L69.6625 390.0927Q69.77187 388.87396 70.49062 388.24896Q71.225 387.60834 72.45937 387.60834Q73.69375 387.60834 74.4125 388.29584Q75.13125 388.98334 75.13125 389.99896Q75.13125 390.5146 74.9125 391.0146Q74.70937 391.49896 74.20937 392.06146Q73.725 392.60834 72.6 393.56146Q71.64687 394.35834 71.36562 394.6552Q71.1 394.93646 70.92812 395.2177L75.14687 395.2177ZM77.19375 396.23334L77.19375 395.0302L78.39687 395.0302L78.39687 396.23334L77.19375 396.23334ZM79.6 391.99896Q79.6 390.4677 79.9125 389.54584Q80.225 388.60834 80.83437 388.10834Q81.45937 387.60834 82.39687 387.60834Q83.08437 387.60834 83.6 387.8896Q84.13125 388.17084 84.475 388.7021Q84.81875 389.2177 85.00625 389.9677Q85.19375 390.7177 85.19375 391.99896Q85.19375 393.5146 84.88125 394.43646Q84.58437 395.35834 83.95937 395.87396Q83.35 396.37396 82.39687 396.37396Q81.1625 396.37396 80.44375 395.48334Q79.6 394.42084 79.6 391.99896ZM80.67812 391.99896Q80.67812 394.10834 81.17812 394.81146Q81.67812 395.5146 82.39687 395.5146Q83.13125 395.5146 83.61562 394.81146Q84.11562 394.10834 84.11562 391.99896Q84.11562 389.87396 83.61562 389.18646Q83.13125 388.48334 82.38125 388.48334Q81.6625 388.48334 81.225 389.0927Q80.67812 389.87396 80.67812 391.99896ZM86.6 391.99896Q86.6 390.4677 86.9125 389.54584Q87.225 388.60834 87.83437 388.10834Q88.45937 387.60834 89.39687 387.60834Q90.08437 387.60834 90.6 387.8896Q91.13125 388.17084 91.475 388.7021Q91.81875 389.2177 92.00625 389.9677Q92.19375 390.7177 92.19375 391.99896Q92.19375 393.5146 91.88125 394.43646Q91.58437 395.35834 90.95937 395.87396Q90.35 396.37396 89.39687 396.37396Q88.1625 396.37396 87.44375 395.48334Q86.6 394.42084 86.6 391.99896ZM87.67812 391.99896Q87.67812 394.10834 88.17812 394.81146Q88.67812 395.5146 89.39687 395.5146Q90.13125 395.5146 90.61562 394.81146Q91.11562 394.10834 91.11562 391.99896Q91.11562 389.87396 90.61562 389.18646Q90.13125 388.48334 89.38125 388.48334Q88.6625 388.48334 88.225 389.0927Q87.67812 389.87396 87.67812 391.99896Z"
     fill-rule="nonzero"
     id="path180" />
  <path
     fill="#000000"
     d="M69.6 263.63437L70.6625 263.49374Q70.83437 264.38437 71.27187 264.79062Q71.70937 265.18124 72.33437 265.18124Q73.08437 265.18124 73.6 264.66562Q74.11562 264.15 74.11562 263.38437Q74.11562 262.66562 73.63125 262.19687Q73.1625 261.7125 72.42812 261.7125Q72.13125 261.7125 71.67812 261.8375L71.80312 260.9Q71.9125 260.91562 71.975 260.91562Q72.64687 260.91562 73.17812 260.57187Q73.725 260.2125 73.725 259.47812Q73.725 258.9 73.33437 258.525Q72.94375 258.13437 72.31875 258.13437Q71.70937 258.13437 71.2875 258.525Q70.88125 258.91562 70.77187 259.68124L69.70937 259.49374Q69.89687 258.44687 70.58437 257.86874Q71.27187 257.275 72.2875 257.275Q72.99062 257.275 73.58437 257.5875Q74.17812 257.88437 74.49062 258.4Q74.80312 258.91562 74.80312 259.50937Q74.80312 260.05624 74.50625 260.525Q74.20937 260.97812 73.63125 261.24374Q74.38125 261.41562 74.80312 261.97812Q75.225 262.525 75.225 263.36874Q75.225 264.49374 74.39687 265.275Q73.58437 266.05624 72.33437 266.05624Q71.20937 266.05624 70.45937 265.38437Q69.70937 264.69687 69.6 263.63437ZM77.19375 265.9L77.19375 264.69687L78.39687 264.69687L78.39687 265.9L77.19375 265.9ZM79.6 261.66562Q79.6 260.13437 79.9125 259.2125Q80.225 258.275 80.83437 257.775Q81.45937 257.275 82.39687 257.275Q83.08437 257.275 83.6 257.55624Q84.13125 257.8375 84.475 258.36874Q84.81875 258.88437 85.00625 259.63437Q85.19375 260.38437 85.19375 261.66562Q85.19375 263.18124 84.88125 264.10312Q84.58437 265.025 83.95937 265.54062Q83.35 266.04062 82.39687 266.04062Q81.1625 266.04062 80.44375 265.15Q79.6 264.0875 79.6 261.66562ZM80.67812 261.66562Q80.67812 263.775 81.17812 264.47812Q81.67812 265.18124 82.39687 265.18124Q83.13125 265.18124 83.61562 264.47812Q84.11562 263.775 84.11562 261.66562Q84.11562 259.54062 83.61562 258.85312Q83.13125 258.15 82.38125 258.15Q81.6625 258.15 81.225 258.75937Q80.67812 259.54062 80.67812 261.66562ZM86.6 261.66562Q86.6 260.13437 86.9125 259.2125Q87.225 258.275 87.83437 257.775Q88.45937 257.275 89.39687 257.275Q90.08437 257.275 90.6 257.55624Q91.13125 257.8375 91.475 258.36874Q91.81875 258.88437 92.00625 259.63437Q92.19375 260.38437 92.19375 261.66562Q92.19375 263.18124 91.88125 264.10312Q91.58437 265.025 90.95937 265.54062Q90.35 266.04062 89.39687 266.04062Q88.1625 266.04062 87.44375 265.15Q86.6 264.0875 86.6 261.66562ZM87.67812 261.66562Q87.67812 263.775 88.17812 264.47812Q88.67812 265.18124 89.39687 265.18124Q90.13125 265.18124 90.61562 264.47812Q91.11562 263.775 91.11562 261.66562Q91.11562 259.54062 90.61562 258.85312Q90.13125 258.15 89.38125 258.15Q88.6625 258.15 88.225 258.75937Q87.67812 259.54062 87.67812 261.66562Z"
     fill-rule="nonzero"
     id="path181" />
  <path
     fill="#000000"
     d="M72.975 135.56667L72.975 133.50417L69.25625 133.50417L69.25625 132.53542L73.17812 126.972916L74.0375 126.972916L74.0375 132.53542L75.19375 132.53542L75.19375 133.50417L74.0375 133.50417L74.0375 135.56667L72.975 135.56667ZM72.975 132.53542L72.975 128.67604L70.2875 132.53542L72.975 132.53542ZM77.19375 135.56667L77.19375 134.36354L78.39687 134.36354L78.39687 135.56667L77.19375 135.56667ZM79.6 131.33229Q79.6 129.80104 79.9125 128.87917Q80.225 127.941666 80.83437 127.441666Q81.45937 126.941666 82.39687 126.941666Q83.08437 126.941666 83.6 127.222916Q84.13125 127.504166 84.475 128.03542Q84.81875 128.55104 85.00625 129.30104Q85.19375 130.05104 85.19375 131.33229Q85.19375 132.84792 84.88125 133.76979Q84.58437 134.69167 83.95937 135.20729Q83.35 135.70729 82.39687 135.70729Q81.1625 135.70729 80.44375 134.81667Q79.6 133.75417 79.6 131.33229ZM80.67812 131.33229Q80.67812 133.44167 81.17812 134.14479Q81.67812 134.84792 82.39687 134.84792Q83.13125 134.84792 83.61562 134.14479Q84.11562 133.44167 84.11562 131.33229Q84.11562 129.20729 83.61562 128.51979Q83.13125 127.816666 82.38125 127.816666Q81.6625 127.816666 81.225 128.42604Q80.67812 129.20729 80.67812 131.33229ZM86.6 131.33229Q86.6 129.80104 86.9125 128.87917Q87.225 127.941666 87.83437 127.441666Q88.45937 126.941666 89.39687 126.941666Q90.08437 126.941666 90.6 127.222916Q91.13125 127.504166 91.475 128.03542Q91.81875 128.55104 92.00625 129.30104Q92.19375 130.05104 92.19375 131.33229Q92.19375 132.84792 91.88125 133.76979Q91.58437 134.69167 90.95937 135.20729Q90.35 135.70729 89.39687 135.70729Q88.1625 135.70729 87.44375 134.81667Q86.6 133.75417 86.6 131.33229ZM87.67812 131.33229Q87.67812 133.44167 88.17812 134.14479Q88.67812 134.84792 89.39687 134.84792Q90.13125 134.84792 90.61562 134.14479Q91.11562 133.44167 91.11562 131.33229Q91.11562 129.20729 90.61562 128.51979Q90.13125 127.816666 89.38125 127.816666Q88.6625 127.816666 88.225 128.42604Q87.67812 129.20729 87.67812 131.33229Z"
     fill-rule="nonzero"
     id="path182" />
  <path
     fill="#000000"
     d="M102.79448 665.66565Q102.79448 664.1344 103.10698 663.2125Q103.41948 662.275 104.028854 661.775Q104.653854 661.275 105.591354 661.275Q106.278854 661.275 106.79448 661.5563Q107.32573 661.8375 107.66948 662.3688Q108.01323 662.8844 108.20073 663.6344Q108.38823 664.3844 108.38823 665.66565Q108.38823 667.1813 108.07573 668.10315Q107.778854 669.025 107.153854 669.54065Q106.54448 670.04065 105.591354 670.04065Q104.35698 670.04065 103.63823 669.15Q102.79448 668.0875 102.79448 665.66565ZM103.872604 665.66565Q103.872604 667.775 104.372604 668.47815Q104.872604 669.1813 105.591354 669.1813Q106.32573 669.1813 106.810104 668.47815Q107.310104 667.775 107.310104 665.66565Q107.310104 663.54065 106.810104 662.85315Q106.32573 662.15 105.57573 662.15Q104.85698 662.15 104.41948 662.7594Q103.872604 663.54065 103.872604 665.66565Z"
     fill-rule="nonzero"
     id="path183" />
  <path
     fill="#000000"
     d="M325.89066 668.8844L325.89066 669.9L320.20316 669.9Q320.20316 669.525 320.32816 669.16565Q320.5469 668.5875 321.01566 668.025Q321.50003 667.4625 322.40628 666.72815Q323.81253 665.5719 324.2969 664.9Q324.7969 664.22815 324.7969 663.6344Q324.7969 663.0094 324.34378 662.5875Q323.89066 662.15 323.1719 662.15Q322.40628 662.15 321.95316 662.60315Q321.50003 663.0563 321.4844 663.8688L320.40628 663.7594Q320.51566 662.54065 321.2344 661.91565Q321.96878 661.275 323.20316 661.275Q324.43753 661.275 325.15628 661.9625Q325.87503 662.65 325.87503 663.66565Q325.87503 664.1813 325.65628 664.6813Q325.45316 665.16565 324.95316 665.72815Q324.46878 666.275 323.34378 667.22815Q322.39066 668.025 322.1094 668.3219Q321.84378 668.60315 321.6719 668.8844L325.89066 668.8844ZM327.34378 665.66565Q327.34378 664.1344 327.65628 663.2125Q327.96878 662.275 328.57816 661.775Q329.20316 661.275 330.14066 661.275Q330.82816 661.275 331.34378 661.5563Q331.87503 661.8375 332.21878 662.3688Q332.56253 662.8844 332.75003 663.6344Q332.93753 664.3844 332.93753 665.66565Q332.93753 667.1813 332.62503 668.10315Q332.32816 669.025 331.70316 669.54065Q331.09378 670.04065 330.14066 670.04065Q328.90628 670.04065 328.18753 669.15Q327.34378 668.0875 327.34378 665.66565ZM328.4219 665.66565Q328.4219 667.775 328.9219 668.47815Q329.4219 669.1813 330.14066 669.1813Q330.87503 669.1813 331.3594 668.47815Q331.8594 667.775 331.8594 665.66565Q331.8594 663.54065 331.3594 662.85315Q330.87503 662.15 330.12503 662.15Q329.40628 662.15 328.96878 662.7594Q328.4219 663.54065 328.4219 665.66565ZM334.34378 665.66565Q334.34378 664.1344 334.65628 663.2125Q334.96878 662.275 335.57816 661.775Q336.20316 661.275 337.14066 661.275Q337.82816 661.275 338.34378 661.5563Q338.87503 661.8375 339.21878 662.3688Q339.56253 662.8844 339.75003 663.6344Q339.93753 664.3844 339.93753 665.66565Q339.93753 667.1813 339.62503 668.10315Q339.32816 669.025 338.70316 669.54065Q338.09378 670.04065 337.14066 670.04065Q335.90628 670.04065 335.18753 669.15Q334.34378 668.0875 334.34378 665.66565ZM335.4219 665.66565Q335.4219 667.775 335.9219 668.47815Q336.4219 669.1813 337.14066 669.1813Q337.87503 669.1813 338.3594 668.47815Q338.8594 667.775 338.8594 665.66565Q338.8594 663.54065 338.3594 662.85315Q337.87503 662.15 337.12503 662.15Q336.40628 662.15 335.96878 662.7594Q335.4219 663.54065 335.4219 665.66565ZM341.34378 665.66565Q341.34378 664.1344 341.65628 663.2125Q341.96878 662.275 342.57816 661.775Q343.20316 661.275 344.14066 661.275Q344.82816 661.275 345.34378 661.5563Q345.87503 661.8375 346.21878 662.3688Q346.56253 662.8844 346.75003 663.6344Q346.93753 664.3844 346.93753 665.66565Q346.93753 667.1813 346.62503 668.10315Q346.32816 669.025 345.70316 669.54065Q345.09378 670.04065 344.14066 670.04065Q342.90628 670.04065 342.18753 669.15Q341.34378 668.0875 341.34378 665.66565ZM342.4219 665.66565Q342.4219 667.775 342.9219 668.47815Q343.4219 669.1813 344.14066 669.1813Q344.87503 669.1813 345.3594 668.47815Q345.8594 667.775 345.8594 665.66565Q345.8594 663.54065 345.3594 662.85315Q344.87503 662.15 344.12503 662.15Q343.40628 662.15 342.96878 662.7594Q342.4219 663.54065 342.4219 665.66565ZM348.34378 665.66565Q348.34378 664.1344 348.65628 663.2125Q348.96878 662.275 349.57816 661.775Q350.20316 661.275 351.14066 661.275Q351.82816 661.275 352.34378 661.5563Q352.87503 661.8375 353.21878 662.3688Q353.56253 662.8844 353.75003 663.6344Q353.93753 664.3844 353.93753 665.66565Q353.93753 667.1813 353.62503 668.10315Q353.32816 669.025 352.70316 669.54065Q352.09378 670.04065 351.14066 670.04065Q349.90628 670.04065 349.18753 669.15Q348.34378 668.0875 348.34378 665.66565ZM349.4219 665.66565Q349.4219 667.775 349.9219 668.47815Q350.4219 669.1813 351.14066 669.1813Q351.87503 669.1813 352.3594 668.47815Q352.8594 667.775 352.8594 665.66565Q352.8594 663.54065 352.3594 662.85315Q351.87503 662.15 351.12503 662.15Q350.40628 662.15 349.96878 662.7594Q349.4219 663.54065 349.4219 665.66565ZM355.34378 665.66565Q355.34378 664.1344 355.65628 663.2125Q355.96878 662.275 356.57816 661.775Q357.20316 661.275 358.14066 661.275Q358.82816 661.275 359.34378 661.5563Q359.87503 661.8375 360.21878 662.3688Q360.56253 662.8844 360.75003 663.6344Q360.93753 664.3844 360.93753 665.66565Q360.93753 667.1813 360.62503 668.10315Q360.32816 669.025 359.70316 669.54065Q359.09378 670.04065 358.14066 670.04065Q356.90628 670.04065 356.18753 669.15Q355.34378 668.0875 355.34378 665.66565ZM356.4219 665.66565Q356.4219 667.775 356.9219 668.47815Q357.4219 669.1813 358.14066 669.1813Q358.87503 669.1813 359.3594 668.47815Q359.8594 667.775 359.8594 665.66565Q359.8594 663.54065 359.3594 662.85315Q358.87503 662.15 358.12503 662.15Q357.40628 662.15 356.96878 662.7594Q356.4219 663.54065 356.4219 665.66565Z"
     fill-rule="nonzero"
     id="path184" />
  <path
     fill="#000000"
     d="M558.76807 669.9L558.76807 667.8375L555.0493 667.8375L555.0493 666.8688L558.9712 661.3063L559.83057 661.3063L559.83057 666.8688L560.9868 666.8688L560.9868 667.8375L559.83057 667.8375L559.83057 669.9L558.76807 669.9ZM558.76807 666.8688L558.76807 663.0094L556.08057 666.8688L558.76807 666.8688ZM562.39307 665.66565Q562.39307 664.1344 562.70557 663.2125Q563.01807 662.275 563.62744 661.775Q564.25244 661.275 565.18994 661.275Q565.87744 661.275 566.39307 661.5563Q566.9243 661.8375 567.26807 662.3688Q567.6118 662.8844 567.7993 663.6344Q567.9868 664.3844 567.9868 665.66565Q567.9868 667.1813 567.6743 668.10315Q567.37744 669.025 566.75244 669.54065Q566.14307 670.04065 565.18994 670.04065Q563.95557 670.04065 563.2368 669.15Q562.39307 668.0875 562.39307 665.66565ZM563.4712 665.66565Q563.4712 667.775 563.9712 668.47815Q564.4712 669.1813 565.18994 669.1813Q565.9243 669.1813 566.4087 668.47815Q566.9087 667.775 566.9087 665.66565Q566.9087 663.54065 566.4087 662.85315Q565.9243 662.15 565.1743 662.15Q564.45557 662.15 564.01807 662.7594Q563.4712 663.54065 563.4712 665.66565ZM569.39307 665.66565Q569.39307 664.1344 569.70557 663.2125Q570.01807 662.275 570.62744 661.775Q571.25244 661.275 572.18994 661.275Q572.87744 661.275 573.39307 661.5563Q573.9243 661.8375 574.26807 662.3688Q574.6118 662.8844 574.7993 663.6344Q574.9868 664.3844 574.9868 665.66565Q574.9868 667.1813 574.6743 668.10315Q574.37744 669.025 573.75244 669.54065Q573.14307 670.04065 572.18994 670.04065Q570.95557 670.04065 570.2368 669.15Q569.39307 668.0875 569.39307 665.66565ZM570.4712 665.66565Q570.4712 667.775 570.9712 668.47815Q571.4712 669.1813 572.18994 669.1813Q572.9243 669.1813 573.4087 668.47815Q573.9087 667.775 573.9087 665.66565Q573.9087 663.54065 573.4087 662.85315Q572.9243 662.15 572.1743 662.15Q571.45557 662.15 571.01807 662.7594Q570.4712 663.54065 570.4712 665.66565ZM576.39307 665.66565Q576.39307 664.1344 576.70557 663.2125Q577.01807 662.275 577.62744 661.775Q578.25244 661.275 579.18994 661.275Q579.87744 661.275 580.39307 661.5563Q580.9243 661.8375 581.26807 662.3688Q581.6118 662.8844 581.7993 663.6344Q581.9868 664.3844 581.9868 665.66565Q581.9868 667.1813 581.6743 668.10315Q581.37744 669.025 580.75244 669.54065Q580.14307 670.04065 579.18994 670.04065Q577.95557 670.04065 577.2368 669.15Q576.39307 668.0875 576.39307 665.66565ZM577.4712 665.66565Q577.4712 667.775 577.9712 668.47815Q578.4712 669.1813 579.18994 669.1813Q579.9243 669.1813 580.4087 668.47815Q580.9087 667.775 580.9087 665.66565Q580.9087 663.54065 580.4087 662.85315Q579.9243 662.15 579.1743 662.15Q578.45557 662.15 578.01807 662.7594Q577.4712 663.54065 577.4712 665.66565ZM583.39307 665.66565Q583.39307 664.1344 583.70557 663.2125Q584.01807 662.275 584.62744 661.775Q585.25244 661.275 586.18994 661.275Q586.87744 661.275 587.39307 661.5563Q587.9243 661.8375 588.26807 662.3688Q588.6118 662.8844 588.7993 663.6344Q588.9868 664.3844 588.9868 665.66565Q588.9868 667.1813 588.6743 668.10315Q588.37744 669.025 587.75244 669.54065Q587.14307 670.04065 586.18994 670.04065Q584.95557 670.04065 584.2368 669.15Q583.39307 668.0875 583.39307 665.66565ZM584.4712 665.66565Q584.4712 667.775 584.9712 668.47815Q585.4712 669.1813 586.18994 669.1813Q586.9243 669.1813 587.4087 668.47815Q587.9087 667.775 587.9087 665.66565Q587.9087 663.54065 587.4087 662.85315Q586.9243 662.15 586.1743 662.15Q585.45557 662.15 585.01807 662.7594Q584.4712 663.54065 584.4712 665.66565ZM590.39307 665.66565Q590.39307 664.1344 590.70557 663.2125Q591.01807 662.275 591.62744 661.775Q592.25244 661.275 593.18994 661.275Q593.87744 661.275 594.39307 661.5563Q594.9243 661.8375 595.26807 662.3688Q595.6118 662.8844 595.7993 663.6344Q595.9868 664.3844 595.9868 665.66565Q595.9868 667.1813 595.6743 668.10315Q595.37744 669.025 594.75244 669.54065Q594.14307 670.04065 593.18994 670.04065Q591.95557 670.04065 591.2368 669.15Q590.39307 668.0875 590.39307 665.66565ZM591.4712 665.66565Q591.4712 667.775 591.9712 668.47815Q592.4712 669.1813 593.18994 669.1813Q593.9243 669.1813 594.4087 668.47815Q594.9087 667.775 594.9087 665.66565Q594.9087 663.54065 594.4087 662.85315Q593.9243 662.15 593.1743 662.15Q592.45557 662.15 592.01807 662.7594Q591.4712 663.54065 591.4712 665.66565Z"
     fill-rule="nonzero"
     id="path185" />
  <path
     fill="#000000"
     d="M795.91113 663.41565L794.86426 663.4938Q794.72363 662.8688 794.47363 662.5875Q794.03613 662.1344 793.41113 662.1344Q792.91113 662.1344 792.5205 662.41565Q792.03613 662.79065 791.73926 663.4938Q791.458 664.1813 791.4424 665.4625Q791.8174 664.8844 792.36426 664.60315Q792.92676 664.3219 793.53613 664.3219Q794.583 664.3219 795.3174 665.10315Q796.0674 665.8844 796.0674 667.10315Q796.0674 667.91565 795.708 668.6188Q795.36426 669.3063 794.7549 669.6813Q794.1455 670.04065 793.3799 670.04065Q792.05176 670.04065 791.22363 669.0719Q790.3955 668.10315 790.3955 665.8844Q790.3955 663.3844 791.3174 662.2594Q792.11426 661.275 793.47363 661.275Q794.48926 661.275 795.1299 661.85315Q795.78613 662.41565 795.91113 663.41565ZM791.61426 667.1188Q791.61426 667.66565 791.833 668.16565Q792.0674 668.65 792.47363 668.91565Q792.8955 669.1813 793.36426 669.1813Q794.0205 669.1813 794.5049 668.65Q794.98926 668.10315 794.98926 667.1813Q794.98926 666.29065 794.5049 665.775Q794.03613 665.2594 793.3174 665.2594Q792.59863 665.2594 792.09863 665.775Q791.61426 666.29065 791.61426 667.1188ZM797.4424 665.66565Q797.4424 664.1344 797.7549 663.2125Q798.0674 662.275 798.67676 661.775Q799.30176 661.275 800.23926 661.275Q800.92676 661.275 801.4424 661.5563Q801.97363 661.8375 802.3174 662.3688Q802.66113 662.8844 802.84863 663.6344Q803.03613 664.3844 803.03613 665.66565Q803.03613 667.1813 802.72363 668.10315Q802.42676 669.025 801.80176 669.54065Q801.1924 670.04065 800.23926 670.04065Q799.0049 670.04065 798.28613 669.15Q797.4424 668.0875 797.4424 665.66565ZM798.5205 665.66565Q798.5205 667.775 799.0205 668.47815Q799.5205 669.1813 800.23926 669.1813Q800.97363 669.1813 801.458 668.47815Q801.958 667.775 801.958 665.66565Q801.958 663.54065 801.458 662.85315Q800.97363 662.15 800.22363 662.15Q799.5049 662.15 799.0674 662.7594Q798.5205 663.54065 798.5205 665.66565ZM804.4424 665.66565Q804.4424 664.1344 804.7549 663.2125Q805.0674 662.275 805.67676 661.775Q806.30176 661.275 807.23926 661.275Q807.92676 661.275 808.4424 661.5563Q808.97363 661.8375 809.3174 662.3688Q809.66113 662.8844 809.84863 663.6344Q810.03613 664.3844 810.03613 665.66565Q810.03613 667.1813 809.72363 668.10315Q809.42676 669.025 808.80176 669.54065Q808.1924 670.04065 807.23926 670.04065Q806.0049 670.04065 805.28613 669.15Q804.4424 668.0875 804.4424 665.66565ZM805.5205 665.66565Q805.5205 667.775 806.0205 668.47815Q806.5205 669.1813 807.23926 669.1813Q807.97363 669.1813 808.458 668.47815Q808.958 667.775 808.958 665.66565Q808.958 663.54065 808.458 662.85315Q807.97363 662.15 807.22363 662.15Q806.5049 662.15 806.0674 662.7594Q805.5205 663.54065 805.5205 665.66565ZM811.4424 665.66565Q811.4424 664.1344 811.7549 663.2125Q812.0674 662.275 812.67676 661.775Q813.30176 661.275 814.23926 661.275Q814.92676 661.275 815.4424 661.5563Q815.97363 661.8375 816.3174 662.3688Q816.66113 662.8844 816.84863 663.6344Q817.03613 664.3844 817.03613 665.66565Q817.03613 667.1813 816.72363 668.10315Q816.42676 669.025 815.80176 669.54065Q815.1924 670.04065 814.23926 670.04065Q813.0049 670.04065 812.28613 669.15Q811.4424 668.0875 811.4424 665.66565ZM812.5205 665.66565Q812.5205 667.775 813.0205 668.47815Q813.5205 669.1813 814.23926 669.1813Q814.97363 669.1813 815.458 668.47815Q815.958 667.775 815.958 665.66565Q815.958 663.54065 815.458 662.85315Q814.97363 662.15 814.22363 662.15Q813.5049 662.15 813.0674 662.7594Q812.5205 663.54065 812.5205 665.66565ZM818.4424 665.66565Q818.4424 664.1344 818.7549 663.2125Q819.0674 662.275 819.67676 661.775Q820.30176 661.275 821.23926 661.275Q821.92676 661.275 822.4424 661.5563Q822.97363 661.8375 823.3174 662.3688Q823.66113 662.8844 823.84863 663.6344Q824.03613 664.3844 824.03613 665.66565Q824.03613 667.1813 823.72363 668.10315Q823.42676 669.025 822.80176 669.54065Q822.1924 670.04065 821.23926 670.04065Q820.0049 670.04065 819.28613 669.15Q818.4424 668.0875 818.4424 665.66565ZM819.5205 665.66565Q819.5205 667.775 820.0205 668.47815Q820.5205 669.1813 821.23926 669.1813Q821.97363 669.1813 822.458 668.47815Q822.958 667.775 822.958 665.66565Q822.958 663.54065 822.458 662.85315Q821.97363 662.15 821.22363 662.15Q820.5049 662.15 820.0674 662.7594Q819.5205 663.54065 819.5205 665.66565ZM825.4424 665.66565Q825.4424 664.1344 825.7549 663.2125Q826.0674 662.275 826.67676 661.775Q827.30176 661.275 828.23926 661.275Q828.92676 661.275 829.4424 661.5563Q829.97363 661.8375 830.3174 662.3688Q830.66113 662.8844 830.84863 663.6344Q831.03613 664.3844 831.03613 665.66565Q831.03613 667.1813 830.72363 668.10315Q830.42676 669.025 829.80176 669.54065Q829.1924 670.04065 828.23926 670.04065Q827.0049 670.04065 826.28613 669.15Q825.4424 668.0875 825.4424 665.66565ZM826.5205 665.66565Q826.5205 667.775 827.0205 668.47815Q827.5205 669.1813 828.23926 669.1813Q828.97363 669.1813 829.458 668.47815Q829.958 667.775 829.958 665.66565Q829.958 663.54065 829.458 662.85315Q828.97363 662.15 828.22363 662.15Q827.5049 662.15 827.0674 662.7594Q826.5205 663.54065 826.5205 665.66565Z"
     fill-rule="nonzero"
     id="path186" />
  <path
     fill="#000000"
     d="M1027.1167 665.2438Q1026.4604 664.9938 1026.1323 664.5563Q1025.8198 664.10315 1025.8198 663.4938Q1025.8198 662.5563 1026.4917 661.91565Q1027.1792 661.275 1028.2886 661.275Q1029.4136 661.275 1030.1011 661.9313Q1030.7886 662.5875 1030.7886 663.525Q1030.7886 664.1188 1030.4761 664.5563Q1030.1636 664.9938 1029.523 665.2438Q1030.3198 665.4938 1030.7261 666.0719Q1031.1323 666.65 1031.1323 667.4469Q1031.1323 668.54065 1030.3511 669.29065Q1029.5854 670.04065 1028.3042 670.04065Q1027.0386 670.04065 1026.2573 669.29065Q1025.4761 668.54065 1025.4761 667.41565Q1025.4761 666.5719 1025.898 666.0094Q1026.3354 665.4469 1027.1167 665.2438ZM1026.898 663.4469Q1026.898 664.0563 1027.2886 664.4469Q1027.6948 664.8375 1028.3198 664.8375Q1028.9292 664.8375 1029.3198 664.4625Q1029.7104 664.0719 1029.7104 663.5094Q1029.7104 662.9313 1029.3042 662.54065Q1028.898 662.1344 1028.3042 662.1344Q1027.6948 662.1344 1027.2886 662.525Q1026.898 662.91565 1026.898 663.4469ZM1026.5698 667.41565Q1026.5698 667.8688 1026.773 668.29065Q1026.9917 668.7125 1027.4136 668.9469Q1027.8354 669.1813 1028.3198 669.1813Q1029.0698 669.1813 1029.5542 668.6969Q1030.0542 668.2125 1030.0542 667.4625Q1030.0542 666.6969 1029.5542 666.1969Q1029.0542 665.6969 1028.2886 665.6969Q1027.5386 665.6969 1027.0542 666.1969Q1026.5698 666.6813 1026.5698 667.41565ZM1032.4917 665.66565Q1032.4917 664.1344 1032.8042 663.2125Q1033.1167 662.275 1033.7261 661.775Q1034.3511 661.275 1035.2886 661.275Q1035.9761 661.275 1036.4917 661.5563Q1037.023 661.8375 1037.3667 662.3688Q1037.7104 662.8844 1037.898 663.6344Q1038.0854 664.3844 1038.0854 665.66565Q1038.0854 667.1813 1037.773 668.10315Q1037.4761 669.025 1036.8511 669.54065Q1036.2417 670.04065 1035.2886 670.04065Q1034.0542 670.04065 1033.3354 669.15Q1032.4917 668.0875 1032.4917 665.66565ZM1033.5698 665.66565Q1033.5698 667.775 1034.0698 668.47815Q1034.5698 669.1813 1035.2886 669.1813Q1036.023 669.1813 1036.5073 668.47815Q1037.0073 667.775 1037.0073 665.66565Q1037.0073 663.54065 1036.5073 662.85315Q1036.023 662.15 1035.273 662.15Q1034.5542 662.15 1034.1167 662.7594Q1033.5698 663.54065 1033.5698 665.66565ZM1039.4917 665.66565Q1039.4917 664.1344 1039.8042 663.2125Q1040.1167 662.275 1040.7261 661.775Q1041.3511 661.275 1042.2886 661.275Q1042.9761 661.275 1043.4917 661.5563Q1044.023 661.8375 1044.3667 662.3688Q1044.7104 662.8844 1044.898 663.6344Q1045.0854 664.3844 1045.0854 665.66565Q1045.0854 667.1813 1044.773 668.10315Q1044.4761 669.025 1043.8511 669.54065Q1043.2417 670.04065 1042.2886 670.04065Q1041.0542 670.04065 1040.3354 669.15Q1039.4917 668.0875 1039.4917 665.66565ZM1040.5698 665.66565Q1040.5698 667.775 1041.0698 668.47815Q1041.5698 669.1813 1042.2886 669.1813Q1043.023 669.1813 1043.5073 668.47815Q1044.0073 667.775 1044.0073 665.66565Q1044.0073 663.54065 1043.5073 662.85315Q1043.023 662.15 1042.273 662.15Q1041.5542 662.15 1041.1167 662.7594Q1040.5698 663.54065 1040.5698 665.66565ZM1046.4917 665.66565Q1046.4917 664.1344 1046.8042 663.2125Q1047.1167 662.275 1047.7261 661.775Q1048.3511 661.275 1049.2886 661.275Q1049.9761 661.275 1050.4917 661.5563Q1051.023 661.8375 1051.3667 662.3688Q1051.7104 662.8844 1051.898 663.6344Q1052.0854 664.3844 1052.0854 665.66565Q1052.0854 667.1813 1051.773 668.10315Q1051.4761 669.025 1050.8511 669.54065Q1050.2417 670.04065 1049.2886 670.04065Q1048.0542 670.04065 1047.3354 669.15Q1046.4917 668.0875 1046.4917 665.66565ZM1047.5698 665.66565Q1047.5698 667.775 1048.0698 668.47815Q1048.5698 669.1813 1049.2886 669.1813Q1050.023 669.1813 1050.5073 668.47815Q1051.0073 667.775 1051.0073 665.66565Q1051.0073 663.54065 1050.5073 662.85315Q1050.023 662.15 1049.273 662.15Q1048.5542 662.15 1048.1167 662.7594Q1047.5698 663.54065 1047.5698 665.66565ZM1053.4917 665.66565Q1053.4917 664.1344 1053.8042 663.2125Q1054.1167 662.275 1054.7261 661.775Q1055.3511 661.275 1056.2886 661.275Q1056.9761 661.275 1057.4917 661.5563Q1058.023 661.8375 1058.3667 662.3688Q1058.7104 662.8844 1058.898 663.6344Q1059.0854 664.3844 1059.0854 665.66565Q1059.0854 667.1813 1058.773 668.10315Q1058.4761 669.025 1057.8511 669.54065Q1057.2417 670.04065 1056.2886 670.04065Q1055.0542 670.04065 1054.3354 669.15Q1053.4917 668.0875 1053.4917 665.66565ZM1054.5698 665.66565Q1054.5698 667.775 1055.0698 668.47815Q1055.5698 669.1813 1056.2886 669.1813Q1057.023 669.1813 1057.5073 668.47815Q1058.0073 667.775 1058.0073 665.66565Q1058.0073 663.54065 1057.5073 662.85315Q1057.023 662.15 1056.273 662.15Q1055.5542 662.15 1055.1167 662.7594Q1054.5698 663.54065 1054.5698 665.66565ZM1060.4917 665.66565Q1060.4917 664.1344 1060.8042 663.2125Q1061.1167 662.275 1061.7261 661.775Q1062.3511 661.275 1063.2886 661.275Q1063.9761 661.275 1064.4917 661.5563Q1065.023 661.8375 1065.3667 662.3688Q1065.7104 662.8844 1065.898 663.6344Q1066.0854 664.3844 1066.0854 665.66565Q1066.0854 667.1813 1065.773 668.10315Q1065.4761 669.025 1064.8511 669.54065Q1064.2417 670.04065 1063.2886 670.04065Q1062.0542 670.04065 1061.3354 669.15Q1060.4917 668.0875 1060.4917 665.66565ZM1061.5698 665.66565Q1061.5698 667.775 1062.0698 668.47815Q1062.5698 669.1813 1063.2886 669.1813Q1064.023 669.1813 1064.5073 668.47815Q1065.0073 667.775 1065.0073 665.66565Q1065.0073 663.54065 1064.5073 662.85315Q1064.023 662.15 1063.273 662.15Q1062.5542 662.15 1062.1167 662.7594Q1061.5698 663.54065 1061.5698 665.66565Z"
     fill-rule="nonzero"
     id="path187" />
  <path
     fill="#757575"
     d="M37.06875 56.1L42.56875 41.7875L44.615623 41.7875L50.475 56.1L48.31875 56.1L46.646873 51.75625L40.6625 51.75625L39.084373 56.1L37.06875 56.1ZM41.209373 50.225L46.053123 50.225L44.56875 46.25625Q43.88125 44.44375 43.553123 43.2875Q43.271873 44.6625 42.771873 46.021873L41.209373 50.225ZM51.4125 56.1L51.4125 45.725L53.00625 45.725L53.00625 47.209373Q54.146873 45.490623 56.303123 45.490623Q57.240623 45.490623 58.021873 45.834373Q58.81875 46.1625 59.209373 46.709373Q59.6 47.25625 59.75625 48.00625Q59.85 48.50625 59.85 49.725L59.85 56.1L58.084373 56.1L58.084373 49.7875Q58.084373 48.709373 57.88125 48.178123Q57.678123 47.646873 57.146873 47.334373Q56.63125 47.021873 55.928123 47.021873Q54.803123 47.021873 53.990623 47.740623Q53.178123 48.44375 53.178123 50.428123L53.178123 56.1L51.4125 56.1ZM61.1 56.959373L62.803123 57.209373Q62.9125 58.00625 63.396873 58.365623Q64.05312 58.85 65.19375 58.85Q66.4125 58.85 67.06875 58.365623Q67.74062 57.88125 67.975 57.00625Q68.11562 56.459373 68.1 54.740623Q66.94375 56.1 65.225 56.1Q63.084373 56.1 61.9125 54.553123Q60.740623 53.00625 60.740623 50.85Q60.740623 49.365623 61.271873 48.115623Q61.81875 46.865623 62.834373 46.178123Q63.865623 45.490623 65.24062 45.490623Q67.06875 45.490623 68.27187 46.975L68.27187 45.725L69.88125 45.725L69.88125 54.69375Q69.88125 57.115623 69.38125 58.115623Q68.89687 59.13125 67.81875 59.709373Q66.75625 60.303123 65.19375 60.303123Q63.35 60.303123 62.19375 59.475Q61.053123 58.646873 61.1 56.959373ZM62.553123 50.725Q62.553123 52.771873 63.365623 53.709373Q64.17812 54.646873 65.39687 54.646873Q66.6 54.646873 67.4125 53.709373Q68.24062 52.771873 68.24062 50.7875Q68.24062 48.88125 67.39687 47.9125Q66.55312 46.94375 65.36562 46.94375Q64.19375 46.94375 63.365623 47.896873Q62.553123 48.85 62.553123 50.725ZM79.20937 56.1L79.20937 54.56875Q78.00625 56.334373 75.92812 56.334373Q75.00625 56.334373 74.20937 55.990623Q73.4125 55.63125 73.02187 55.1Q72.64687 54.56875 72.49062 53.7875Q72.38125 53.271873 72.38125 52.146873L72.38125 45.725L74.13125 45.725L74.13125 51.475Q74.13125 52.85 74.24062 53.334373Q74.4125 54.021873 74.94375 54.428123Q75.49062 54.81875 76.27187 54.81875Q77.06875 54.81875 77.75625 54.4125Q78.45937 54.00625 78.74062 53.31875Q79.0375 52.615623 79.0375 51.2875L79.0375 45.725L80.7875 45.725L80.7875 56.1L79.20937 56.1ZM82.38125 56.1L82.38125 41.7875L84.13125 41.7875L84.13125 56.1L82.38125 56.1ZM93.19375 54.81875Q92.20937 55.646873 91.30312 55.990623Q90.39687 56.334373 89.36562 56.334373Q87.6625 56.334373 86.74062 55.50625Q85.81875 54.6625 85.81875 53.365623Q85.81875 52.6 86.1625 51.975Q86.52187 51.35 87.08437 50.975Q87.64687 50.584373 88.35 50.38125Q88.86562 50.25625 89.9125 50.115623Q92.0375 49.865623 93.0375 49.521873Q93.05312 49.1625 93.05312 49.053123Q93.05312 47.990623 92.55312 47.5375Q91.88125 46.94375 90.55312 46.94375Q89.30312 46.94375 88.70937 47.38125Q88.13125 47.81875 87.85 48.928123L86.13125 48.69375Q86.36562 47.584373 86.89687 46.9125Q87.42812 46.225 88.44375 45.865623Q89.45937 45.490623 90.80312 45.490623Q92.13125 45.490623 92.95937 45.803123Q93.7875 46.115623 94.17812 46.6Q94.56875 47.06875 94.725 47.7875Q94.81875 48.240623 94.81875 49.4125L94.81875 51.75625Q94.81875 54.209373 94.92812 54.865623Q95.0375 55.50625 95.38125 56.1L93.5375 56.1Q93.27187 55.553123 93.19375 54.81875ZM93.0375 50.896873Q92.08437 51.2875 90.1625 51.553123Q89.08437 51.709373 88.63125 51.9125Q88.19375 52.1 87.94375 52.475Q87.69375 52.85 87.69375 53.31875Q87.69375 54.021873 88.225 54.490623Q88.75625 54.959373 89.7875 54.959373Q90.80312 54.959373 91.58437 54.521873Q92.38125 54.06875 92.75625 53.303123Q93.0375 52.69375 93.0375 51.5375L93.0375 50.896873ZM97.39687 56.1L97.39687 45.725L98.975 45.725L98.975 47.303123Q99.58437 46.19375 100.1 45.85Q100.61562 45.490623 101.225 45.490623Q102.11562 45.490623 103.0375 46.053123L102.42812 47.69375Q101.7875 47.303123 101.14687 47.303123Q100.56875 47.303123 100.1 47.6625Q99.64687 48.00625 99.44375 48.615623Q99.1625 49.553123 99.1625 50.6625L99.1625 56.1L97.39687 56.1ZM109.06875 56.1L114.56875 41.7875L116.61562 41.7875L122.475 56.1L120.31875 56.1L118.64687 51.75625L112.6625 51.75625L111.08437 56.1L109.06875 56.1ZM113.20937 50.225L118.05312 50.225L116.56875 46.25625Q115.88125 44.44375 115.55312 43.2875Q115.27187 44.6625 114.77187 46.021873L113.20937 50.225ZM123.4125 56.1L123.4125 45.725L125.00625 45.725L125.00625 47.209373Q126.14687 45.490623 128.30313 45.490623Q129.24063 45.490623 130.02188 45.834373Q130.81876 46.1625 131.20938 46.709373Q131.6 47.25625 131.75626 48.00625Q131.85 48.50625 131.85 49.725L131.85 56.1L130.08438 56.1L130.08438 49.7875Q130.08438 48.709373 129.88126 48.178123Q129.67813 47.646873 129.14688 47.334373Q128.63126 47.021873 127.92812 47.021873Q126.80312 47.021873 125.99062 47.740623Q125.17812 48.44375 125.17812 50.428123L125.17812 56.1L123.4125 56.1ZM132.77188 50.9125Q132.77188 48.0375 134.36563 46.646873Q135.70938 45.490623 137.63126 45.490623Q139.77188 45.490623 141.11563 46.896873Q142.475 48.303123 142.475 50.771873Q142.475 52.771873 141.88126 53.928123Q141.2875 55.06875 140.13126 55.709373Q138.99063 56.334373 137.63126 56.334373Q135.44376 56.334373 134.1 54.94375Q132.77188 53.5375 132.77188 50.9125ZM134.56876 50.9125Q134.56876 52.9125 135.42813 53.896873Q136.30313 54.88125 137.63126 54.88125Q138.94376 54.88125 139.80313 53.896873Q140.67813 52.896873 140.67813 50.85Q140.67813 48.928123 139.80313 47.94375Q138.92813 46.94375 137.63126 46.94375Q136.30313 46.94375 135.42813 47.94375Q134.56876 48.928123 134.56876 50.9125ZM144.4125 56.1L144.4125 45.725L145.99063 45.725L145.99063 47.178123Q146.475 46.428123 147.2875 45.959373Q148.1 45.490623 149.13126 45.490623Q150.2875 45.490623 151.02188 45.975Q151.75626 46.44375 152.06876 47.303123Q153.30313 45.490623 155.27188 45.490623Q156.81876 45.490623 157.64688 46.35Q158.475 47.209373 158.475 48.975L158.475 56.1L156.725 56.1L156.725 49.56875Q156.725 48.50625 156.55313 48.053123Q156.38126 47.584373 155.92813 47.303123Q155.49063 47.021873 154.88126 47.021873Q153.7875 47.021873 153.05313 47.75625Q152.33438 48.475 152.33438 50.06875L152.33438 56.1L150.58438 56.1L150.58438 49.365623Q150.58438 48.19375 150.14688 47.615623Q149.725 47.021873 148.74063 47.021873Q148.00626 47.021873 147.36563 47.4125Q146.74063 47.803123 146.45938 48.553123Q146.17813 49.303123 146.17813 50.725L146.17813 56.1L144.4125 56.1ZM167.19376 54.81875Q166.20938 55.646873 165.30313 55.990623Q164.39688 56.334373 163.36563 56.334373Q161.6625 56.334373 160.74063 55.50625Q159.81876 54.6625 159.81876 53.365623Q159.81876 52.6 160.1625 51.975Q160.52188 51.35 161.08438 50.975Q161.64688 50.584373 162.35 50.38125Q162.86563 50.25625 163.9125 50.115623Q166.0375 49.865623 167.0375 49.521873Q167.05313 49.1625 167.05313 49.053123Q167.05313 47.990623 166.55313 47.5375Q165.88126 46.94375 164.55313 46.94375Q163.30313 46.94375 162.70938 47.38125Q162.13126 47.81875 161.85 48.928123L160.13126 48.69375Q160.36563 47.584373 160.89688 46.9125Q161.42813 46.225 162.44376 45.865623Q163.45938 45.490623 164.80313 45.490623Q166.13126 45.490623 166.95938 45.803123Q167.7875 46.115623 168.17813 46.6Q168.56876 47.06875 168.725 47.7875Q168.81876 48.240623 168.81876 49.4125L168.81876 51.75625Q168.81876 54.209373 168.92813 54.865623Q169.0375 55.50625 169.38126 56.1L167.5375 56.1Q167.27188 55.553123 167.19376 54.81875ZM167.0375 50.896873Q166.08438 51.2875 164.1625 51.553123Q163.08438 51.709373 162.63126 51.9125Q162.19376 52.1 161.94376 52.475Q161.69376 52.85 161.69376 53.31875Q161.69376 54.021873 162.225 54.490623Q162.75626 54.959373 163.7875 54.959373Q164.80313 54.959373 165.58438 54.521873Q166.38126 54.06875 166.75626 53.303123Q167.0375 52.69375 167.0375 51.5375L167.0375 50.896873ZM171.38126 56.1L171.38126 41.7875L173.13126 41.7875L173.13126 56.1L171.38126 56.1ZM175.33438 60.1L175.14688 58.44375Q175.725 58.6 176.14688 58.6Q176.74063 58.6 177.08438 58.396873Q177.44376 58.209373 177.6625 57.865623Q177.83438 57.6 178.20938 56.553123Q178.25626 56.396873 178.36563 56.115623L174.42813 45.725L176.31876 45.725L178.475 51.740623Q178.89688 52.88125 179.225 54.13125Q179.5375 52.928123 179.94376 51.771873L182.1625 45.725L183.92813 45.725L179.975 56.271873Q179.35 57.990623 178.99063 58.63125Q178.52188 59.50625 177.9125 59.896873Q177.31876 60.303123 176.475 60.303123Q175.95938 60.303123 175.33438 60.1ZM194.30313 56.1L190.35 45.725L192.20938 45.725L194.44376 51.94375Q194.80313 52.94375 195.1 54.021873Q195.33438 53.209373 195.75626 52.053123L198.05313 45.725L199.86563 45.725L195.94376 56.1L194.30313 56.1ZM199.70938 53.00625L201.45938 52.725Q201.6 53.771873 202.27188 54.334373Q202.94376 54.88125 204.14688 54.88125Q205.35 54.88125 205.92813 54.396873Q206.52188 53.896873 206.52188 53.240623Q206.52188 52.646873 206.00626 52.303123Q205.64688 52.06875 204.20938 51.709373Q202.27188 51.209373 201.52188 50.865623Q200.7875 50.50625 200.39688 49.88125Q200.00626 49.240623 200.00626 48.475Q200.00626 47.7875 200.31876 47.19375Q200.64688 46.6 201.19376 46.209373Q201.6 45.9125 202.30313 45.709373Q203.02188 45.490623 203.83438 45.490623Q205.05313 45.490623 205.975 45.85Q206.89688 46.19375 207.33438 46.803123Q207.77188 47.396873 207.94376 48.396873L206.225 48.63125Q206.1 47.834373 205.5375 47.396873Q204.975 46.94375 203.95938 46.94375Q202.74063 46.94375 202.225 47.35Q201.70938 47.740623 201.70938 48.271873Q201.70938 48.615623 201.92813 48.896873Q202.13126 49.178123 202.6 49.365623Q202.86563 49.459373 204.14688 49.803123Q206.02188 50.303123 206.75626 50.63125Q207.49063 50.94375 207.9125 51.553123Q208.33438 52.146873 208.33438 53.053123Q208.33438 53.928123 207.81876 54.709373Q207.30313 55.490623 206.33438 55.9125Q205.36563 56.334373 204.14688 56.334373Q202.13126 56.334373 201.06876 55.490623Q200.00626 54.646873 199.70938 53.00625ZM210.9125 56.1L210.9125 54.1L212.9125 54.1L212.9125 56.1L210.9125 56.1ZM222.64688 56.1L222.64688 41.7875L227.56876 41.7875Q229.24063 41.7875 230.13126 41.990623Q231.35 42.271873 232.225 43.00625Q233.35 43.975 233.9125 45.459373Q234.475 46.94375 234.475 48.865623Q234.475 50.490623 234.1 51.75625Q233.725 53.00625 233.11563 53.834373Q232.52188 54.6625 231.81876 55.146873Q231.11563 55.615623 230.11563 55.865623Q229.11563 56.1 227.80313 56.1L222.64688 56.1ZM224.5375 54.4125L227.6 54.4125Q229.00626 54.4125 229.80313 54.146873Q230.61563 53.88125 231.1 53.396873Q231.77188 52.725 232.14688 51.6Q232.52188 50.459373 232.52188 48.834373Q232.52188 46.584373 231.7875 45.38125Q231.05313 44.178123 229.99063 43.771873Q229.24063 43.475 227.55313 43.475L224.5375 43.475L224.5375 54.4125ZM236.42813 43.803123L236.42813 41.7875L238.19376 41.7875L238.19376 43.803123L236.42813 43.803123ZM236.42813 56.1L236.42813 45.725L238.19376 45.725L238.19376 56.1L236.42813 56.1ZM239.70938 53.00625L241.45938 52.725Q241.6 53.771873 242.27188 54.334373Q242.94376 54.88125 244.14688 54.88125Q245.35 54.88125 245.92813 54.396873Q246.52188 53.896873 246.52188 53.240623Q246.52188 52.646873 246.00626 52.303123Q245.64688 52.06875 244.20938 51.709373Q242.27188 51.209373 241.52188 50.865623Q240.7875 50.50625 240.39688 49.88125Q240.00626 49.240623 240.00626 48.475Q240.00626 47.7875 240.31876 47.19375Q240.64688 46.6 241.19376 46.209373Q241.6 45.9125 242.30313 45.709373Q243.02188 45.490623 243.83438 45.490623Q245.05313 45.490623 245.975 45.85Q246.89688 46.19375 247.33438 46.803123Q247.77188 47.396873 247.94376 48.396873L246.225 48.63125Q246.1 47.834373 245.5375 47.396873Q244.975 46.94375 243.95938 46.94375Q242.74063 46.94375 242.225 47.35Q241.70938 47.740623 241.70938 48.271873Q241.70938 48.615623 241.92813 48.896873Q242.13126 49.178123 242.6 49.365623Q242.86563 49.459373 244.14688 49.803123Q246.02188 50.303123 246.75626 50.63125Q247.49063 50.94375 247.9125 51.553123Q248.33438 52.146873 248.33438 53.053123Q248.33438 53.928123 247.81876 54.709373Q247.30313 55.490623 246.33438 55.9125Q245.36563 56.334373 244.14688 56.334373Q242.13126 56.334373 241.06876 55.490623Q240.00626 54.646873 239.70938 53.00625ZM254.25626 54.521873L254.50626 56.084373Q253.77188 56.240623 253.17813 56.240623Q252.225 56.240623 251.69376 55.94375Q251.17813 55.63125 250.95938 55.146873Q250.74063 54.646873 250.74063 53.06875L250.74063 47.1L249.45938 47.1L249.45938 45.725L250.74063 45.725L250.74063 43.1625L252.49063 42.1L252.49063 45.725L254.25626 45.725L254.25626 47.1L252.49063 47.1L252.49063 53.1625Q252.49063 53.9125 252.58438 54.13125Q252.67813 54.334373 252.88126 54.475Q253.1 54.6 253.49063 54.6Q253.77188 54.6 254.25626 54.521873ZM263.19376 54.81875Q262.20938 55.646873 261.30313 55.990623Q260.39688 56.334373 259.36563 56.334373Q257.6625 56.334373 256.74063 55.50625Q255.81876 54.6625 255.81876 53.365623Q255.81876 52.6 256.1625 51.975Q256.52188 51.35 257.08438 50.975Q257.64688 50.584373 258.35 50.38125Q258.86563 50.25625 259.9125 50.115623Q262.0375 49.865623 263.0375 49.521873Q263.05313 49.1625 263.05313 49.053123Q263.05313 47.990623 262.55313 47.5375Q261.88126 46.94375 260.55313 46.94375Q259.30313 46.94375 258.70938 47.38125Q258.13126 47.81875 257.85 48.928123L256.13126 48.69375Q256.36563 47.584373 256.89688 46.9125Q257.42813 46.225 258.44376 45.865623Q259.45938 45.490623 260.80313 45.490623Q262.13126 45.490623 262.95938 45.803123Q263.7875 46.115623 264.17813 46.6Q264.56876 47.06875 264.725 47.7875Q264.81876 48.240623 264.81876 49.4125L264.81876 51.75625Q264.81876 54.209373 264.92813 54.865623Q265.0375 55.50625 265.38126 56.1L263.5375 56.1Q263.27188 55.553123 263.19376 54.81875ZM263.0375 50.896873Q262.08438 51.2875 260.1625 51.553123Q259.08438 51.709373 258.63126 51.9125Q258.19376 52.1 257.94376 52.475Q257.69376 52.85 257.69376 53.31875Q257.69376 54.021873 258.225 54.490623Q258.75626 54.959373 259.7875 54.959373Q260.80313 54.959373 261.58438 54.521873Q262.38126 54.06875 262.75626 53.303123Q263.0375 52.69375 263.0375 51.5375L263.0375 50.896873ZM267.4125 56.1L267.4125 45.725L269.00626 45.725L269.00626 47.209373Q270.14688 45.490623 272.30313 45.490623Q273.24063 45.490623 274.02188 45.834373Q274.81876 46.1625 275.20938 46.709373Q275.6 47.25625 275.75626 48.00625Q275.85 48.50625 275.85 49.725L275.85 56.1L274.08438 56.1L274.08438 49.7875Q274.08438 48.709373 273.88126 48.178123Q273.67813 47.646873 273.14688 47.334373Q272.63126 47.021873 271.92813 47.021873Q270.80313 47.021873 269.99063 47.740623Q269.17813 48.44375 269.17813 50.428123L269.17813 56.1L267.4125 56.1ZM284.19376 52.303123L285.9125 52.521873Q285.63126 54.31875 284.45938 55.334373Q283.30313 56.334373 281.6 56.334373Q279.475 56.334373 278.17813 54.94375Q276.88126 53.553123 276.88126 50.959373Q276.88126 49.271873 277.42813 48.021873Q277.99063 46.75625 279.13126 46.13125Q280.27188 45.490623 281.61563 45.490623Q283.30313 45.490623 284.36563 46.35Q285.44376 47.209373 285.75626 48.771873L284.0375 49.0375Q283.80313 47.990623 283.17813 47.475Q282.55313 46.94375 281.67813 46.94375Q280.35 46.94375 279.52188 47.896873Q278.69376 48.85 278.69376 50.896873Q278.69376 52.990623 279.49063 53.94375Q280.2875 54.88125 281.58438 54.88125Q282.61563 54.88125 283.30313 54.25625Q284.00626 53.615623 284.19376 52.303123ZM294.52188 52.75625L296.33438 52.990623Q295.9125 54.56875 294.74063 55.459373Q293.58438 56.334373 291.77188 56.334373Q289.50626 56.334373 288.1625 54.94375Q286.83438 53.5375 286.83438 51.00625Q286.83438 48.38125 288.17813 46.94375Q289.52188 45.490623 291.67813 45.490623Q293.75626 45.490623 295.06876 46.9125Q296.39688 48.31875 296.39688 50.896873Q296.39688 51.053123 296.38126 51.365623L288.64688 51.365623Q288.74063 53.06875 289.61563 53.975Q290.49063 54.88125 291.7875 54.88125Q292.75626 54.88125 293.42813 54.38125Q294.11563 53.865623 294.52188 52.75625ZM288.74063 49.9125L294.5375 49.9125Q294.42813 48.615623 293.88126 47.959373Q293.0375 46.94375 291.69376 46.94375Q290.49063 46.94375 289.6625 47.75625Q288.83438 48.553123 288.74063 49.9125Z"
     fill-rule="nonzero"
     id="path192" />
</svg>
